<svg width="25" height="24" viewBox="0 0 25 24" fill="none" xmlns="http://www.w3.org/2000/svg">
<path d="M10.6663 16.73C10.535 16.7303 10.405 16.7046 10.2837 16.6545C10.1624 16.6044 10.0521 16.5308 9.9593 16.438L5.7173 12.195C5.62173 12.1028 5.54547 11.9925 5.49298 11.8706C5.44048 11.7486 5.41281 11.6174 5.41156 11.4846C5.41031 11.3518 5.43552 11.2201 5.48571 11.0972C5.53591 10.9743 5.61008 10.8626 5.70391 10.7686C5.79773 10.6747 5.90933 10.6003 6.03219 10.55C6.15505 10.4996 6.28671 10.4742 6.41949 10.4753C6.55227 10.4763 6.68351 10.5038 6.80555 10.5561C6.92759 10.6085 7.03799 10.6846 7.1303 10.78L10.6653 14.315L17.0303 7.952C17.2178 7.76436 17.4722 7.65889 17.7374 7.6588C18.0027 7.6587 18.2572 7.76399 18.4448 7.9515C18.6324 8.13901 18.7379 8.39338 18.738 8.65865C18.7381 8.92392 18.6328 9.17836 18.4453 9.366L11.3733 16.438C11.2805 16.5308 11.1702 16.6044 11.0489 16.6545C10.9276 16.7046 10.7976 16.7303 10.6663 16.73Z" fill="#2FAB73"/>
</svg>
